<?xml version="1.0" encoding="UTF-8"?>
<svg id="Layer_2" data-name="Layer 2" xmlns="http://www.w3.org/2000/svg" viewBox="0 0 192.23 168.4">
  <defs>
    <style>
      .cls-1 {
        fill: #39b54a;
      }
    </style>
  </defs>
  <g id="Layer_1-2" data-name="Layer 1">
    <path class="cls-1" d="M96.26,100.98c-2.41.3-4.33,2.22-4.63,4.63,0,.05-.08.05-.08,0-.3-2.41-2.21-4.33-4.63-4.63-.05,0-.05-.08,0-.08,2.41-.3,4.32-2.22,4.63-4.63,0-.05.08-.05.08,0,.3,2.41,2.22,4.33,4.63,4.63.05,0,.05.08,0,.08Z"/>
    <path class="cls-1" d="M103.6,95.05c-2.33-1.81-5.61-1.81-7.93,0-.05.04-.11-.02-.07-.07,1.81-2.33,1.81-5.6,0-7.93-.04-.05.02-.11.07-.07,2.33,1.81,5.6,1.81,7.93,0,.05-.04.11.02.07.07-1.81,2.33-1.81,5.61,0,7.93.04.05-.02.11-.07.07Z"/>
    <g>
      <path class="cls-1" d="M36.43,129.7c-.06,0-.12,0-.18,0-11.62-.18-18.3-1.35-22.09-2.51-2.69-.82-3.32-4.37-1.09-6.08,3.16-2.4,9.02-5.82,19.85-10.02.32-.12.66-.25.99-.37.06-3.49.39-6.97,1.01-10.41-2.62.93-5.15,1.88-7.55,2.84C7.65,111.08-1.26,118.73.14,126.56c1.4,7.83,12.41,11.92,33.66,12.51,1.74.05,5.92.07,6.19.07-1.44-3.06-2.62-6.22-3.55-9.43Z"/>
      <path class="cls-1" d="M192.09,92.23c-1.4-7.83-12.41-11.92-33.66-12.51-1.45-.04-2.95-.06-4.47-.06,1.76,3.06,3.25,6.23,4.47,9.49,10.12.29,16.13,1.38,19.64,2.46,2.69.82,3.32,4.37,1.09,6.08-2.85,2.17-7.92,5.17-16.85,8.82.28,3.37.28,6.75.03,10.11.85-.33,1.69-.65,2.51-.98,19.72-7.92,28.63-15.57,27.23-23.4Z"/>
    </g>
    <circle class="cls-1" cx="106.11" cy="7.89" r="7.89"/>
    <path class="cls-1" d="M91.59,9.66c0,2.58-2.09,4.68-4.68,4.68s-4.68-2.09-4.68-4.68,2.09-4.68,4.68-4.68,4.68,2.09,4.68,4.68Z"/>
    <path class="cls-1" d="M99.15,23.95c0,1.83-1.49,3.32-3.32,3.32s-3.32-1.49-3.32-3.32,1.49-3.32,3.32-3.32,3.32,1.49,3.32,3.32Z"/>
    <g>
      <path class="cls-1" d="M90.4,133.12c-1.2-2.29-4.97-7.3-16.42-12.63,0,0,10.71,2.19,16.33,6.82.3-5.1,1.59-9.92,3.68-14.3-7.9-5.67-17.58-9.02-28.05-9.02-1.91,0-3.79.12-5.64.34-.44,2.34-.68,4.75-.68,7.21,0,20.61,16.16,37.45,36.5,38.54-3.13-5-5.15-10.77-5.71-16.96Z"/>
      <path class="cls-1" d="M130.9,91.01c-20.34,1.09-36.49,17.93-36.49,38.54,0,7.31,2.04,14.13,5.57,19.96,2.21-16.02,20.11-38.57,20.11-38.57-9.16,17.32-13.95,35.26-14.79,38.54,17.93-3.33,31.52-19.04,31.52-37.94,0-7.55-2.17-14.58-5.92-20.53Z"/>
    </g>
    <g>
      <path class="cls-1" d="M96.11,150.09c-20.34-1.09-36.5-17.93-36.5-38.54,0-2.47.24-4.88.68-7.22,1.85-.22,3.73-.34,5.64-.34,10.47,0,20.15,3.35,28.05,9.02-2.07,4.34-3.36,9.13-3.67,14.17,0,.04,0,.09,0,.13-.02-.02-.04-.03-.06-.05-5.46-4.45-15.6-6.62-16.23-6.75l1.02.49c10.63,5.13,14.21,9.9,15.37,12.13.56,6.19,2.58,11.96,5.71,16.96Z"/>
      <path class="cls-1" d="M136.81,111.55c0,18.89-13.58,34.61-31.51,37.93.83-3.27,5.63-21.2,14.77-38.51-.55.68-17.92,22.78-20.1,38.55-3.53-5.83-5.57-12.65-5.57-19.96,0-2.77.29-5.46.85-8.07h0c3.57-16.78,18.04-29.53,35.65-30.47,3.74,5.94,5.91,12.98,5.91,20.53Z"/>
    </g>
    <path class="cls-1" d="M119.03,58.57v-14.26h2.48c2.51,0,4.75-1.83,4.99-4.33.27-2.87-1.97-5.28-4.78-5.28h-46.79c-2.51,0-4.75,1.83-4.99,4.33-.27,2.87,1.97,5.28,4.78,5.28h2.68v14.25c-22.25,8.78-37.69,31.19-35.95,56.89,1.9,27.98,24.39,50.67,52.35,52.78,33.36,2.53,61.31-23.9,61.31-56.73,0-24.03-14.98-44.6-36.08-52.93ZM94.97,156.27c-21.79-1.54-39.55-18.97-41.47-40.73-1.99-22.62,12.93-42.14,33.5-47.46v-23.78h22.42v5.84h-9.1c-.68,0-1.23.55-1.23,1.23h0c0,.68.55,1.23,1.23,1.23h9.1v2.62h-3.96c-.68,0-1.23.55-1.23,1.23h0c0,.68.55,1.23,1.23,1.23h3.96v2.62h-6.92c-.68,0-1.23.55-1.23,1.23h0c0,.68.55,1.23,1.23,1.23h6.92v5.33c19.33,5,33.68,22.53,33.68,43.41,0,25.82-21.92,46.62-48.13,44.77Z"/>
  </g>
</svg>