<?xml version="1.0" encoding="UTF-8"?>
<svg id="Layer_2" xmlns="http://www.w3.org/2000/svg" viewBox="0 0 45.68 50.04">
  <defs>
    <style>
      .cls-1 {
        fill: #68bd45;
      }
    </style>
  </defs>
  <g id="Layer_1-2" data-name="Layer_1">
    <path class="cls-1" d="M44.41,12.06L24.1.34c-.78-.45-1.75-.45-2.53,0L1.26,12.06c-.78.45-1.26,1.29-1.26,2.19v23.45c0,.9.48,1.74,1.26,2.19l17.57,10.14c1.76-3.06,2.36-8.21-1.17-10.35.97.24,1.47.54,1.94.84-1.34-3.45-3.25-6.54-6.41-8.8,3.14,1.25,5.67,3.08,7.58,5.52-.5-4.49-2.04-8.72-6.59-12.19,3.84,1.65,6.7,4.17,8.65,7.49,1.95-3.33,4.81-5.85,8.65-7.49-4.55,3.47-6.09,7.7-6.59,12.19,1.9-2.44,4.44-4.27,7.58-5.52-3.16,2.27-5.07,5.35-6.41,8.8.47-.3.97-.6,1.94-.84-3.53,2.13-2.93,7.29-1.17,10.35l17.57-10.14c.78-.45,1.26-1.29,1.26-2.19V14.25c0-.9-.48-1.74-1.26-2.19ZM26.58,10.1s2.14,4.87-3.21,6.7c0,0,1.17-1.55,1.3-2.48,0,0-.65,1.38-1.77,1.94,0,0-2.49-4.14,3.69-6.16ZM20.04,7.59c3.82,2.65,1.26,4.98,1.26,4.98-.66-.62-.82-1.69-.82-1.69-.11.67.38,1.97.38,1.97-3.29-2.36-.82-5.26-.82-5.26ZM16.98,39.06c-1.25.11-2.52-.73-2.52-.73.59.73,2.4,1.44,2.4,1.44-5.52,1.23-6.23-4.04-6.23-4.04,6.32-1.5,6.35,3.33,6.35,3.33ZM13.32,31.45c-1.46-.08-2.79-1.24-2.79-1.24.57.94,2.54,2.05,2.54,2.05-6.56.53-6.54-5.66-6.54-5.66,7.52-.72,6.79,4.85,6.79,4.85ZM14.3,24.48c-1.85-.5-3.22-2.36-3.22-2.36.46,1.36,2.67,3.31,2.67,3.31-8.52-1.14-6.78-9.03-6.78-9.03,9.8,1.16,7.33,8.08,7.33,8.08ZM16.28,17.99c-1.2-.6-1.89-2.07-1.89-2.07.13,1,1.38,2.65,1.38,2.65-5.71-1.95-3.42-7.15-3.42-7.15,6.58,2.15,3.93,6.56,3.93,6.56ZM20.15,25.47c-.85-.43-1.34-1.47-1.34-1.47.09.71.98,1.88.98,1.88-4.05-1.39-2.43-5.08-2.43-5.08,4.68,1.53,2.79,4.66,2.79,4.66ZM20.67,18.93c-.81-.63-1.1-1.83-1.1-1.83-.05.77.63,2.19.63,2.19-3.97-2.33-1.47-5.86-1.47-5.86,4.6,2.61,1.94,5.51,1.94,5.51ZM23.6,27.82s1.44-2.64,1.42-4.1c0,0-.68,2.26-2.27,3.38,0,0-4.76-5.78,4.24-10.28,0,0,4.4,6.97-3.39,11.01ZM29.4,17.99s-2.65-4.42,3.93-6.56c0,0,2.28,5.19-3.42,7.15,0,0,1.25-1.65,1.38-2.65,0,0-.69,1.47-1.89,2.07ZM31.38,24.48s-2.47-6.91,7.33-8.08c0,0,1.74,7.89-6.78,9.03,0,0,2.21-1.95,2.67-3.31,0,0-1.37,1.86-3.22,2.36ZM28.82,39.78s1.81-.71,2.4-1.44c0,0-1.27.84-2.52.73,0,0,.04-4.83,6.36-3.33,0,0-.71,5.27-6.23,4.04ZM32.61,32.26s1.97-1.1,2.54-2.05c0,0-1.33,1.17-2.79,1.24,0,0-.73-5.57,6.79-4.85,0,0,.02,6.19-6.54,5.66Z"/>
  </g>
</svg>